HIERARCHY
ROOT Hips
{
    OFFSET 0.000000 0.000000 0.000000
    CHANNELS 6 Xposition Yposition Zposition Zrotation Xrotation Yrotation
    JOINT Spine
    {
        OFFSET -0.000000 8.339920 0.000000
        CHANNELS 3 Zrotation Xrotation Yrotation
        JOINT Spine1
        {
            OFFSET -0.000000 25.214485 0.000000
            CHANNELS 3 Zrotation Xrotation Yrotation
            JOINT Neck
            {
                OFFSET -0.000000 25.110935 2.282812
                CHANNELS 3 Zrotation Xrotation Yrotation
                JOINT Head
                {
                    OFFSET -0.000000 14.238888 -2.034127
                    CHANNELS 3 Zrotation Xrotation Yrotation
                    End Site
                    {
                        OFFSET -0.000000 25.426584 0.000000
                    }
                }
            }
            JOINT LeftShoulder
            {
                OFFSET 4.025024 23.158985 -0.185822
                CHANNELS 3 Zrotation Xrotation Yrotation
                JOINT LeftArm
                {
                    OFFSET 11.674057 0.000000 0.000000
                    CHANNELS 3 Zrotation Xrotation Yrotation
                    JOINT LeftForeArm
                    {
                        OFFSET 31.688633 0.000000 0.000000
                        CHANNELS 3 Zrotation Xrotation Yrotation
                        JOINT LeftHand
                        {
                            OFFSET 29.704493 0.000000 0.000000
                            CHANNELS 3 Zrotation Xrotation Yrotation
                            End Site
                            {
                                OFFSET 15.255952 0.000000 0.000000
                            }
                        }
                    }
                }
            }
            JOINT RightShoulder
            {
                OFFSET -4.099539 23.158985 -0.185822
                CHANNELS 3 Zrotation Xrotation Yrotation
                JOINT RightArm
                {
                    OFFSET -11.674057 0.000000 0.000000
                    CHANNELS 3 Zrotation Xrotation Yrotation
                    JOINT RightForeArm
                    {
                        OFFSET -31.688633 0.000000 0.000000
                        CHANNELS 3 Zrotation Xrotation Yrotation
                        JOINT RightHand
                        {
                            OFFSET -29.704493 0.000000 0.000000
                            CHANNELS 3 Zrotation Xrotation Yrotation
                            End Site
                            {
                                OFFSET -15.255952 0.000000 0.000000
                            }
                        }
                    }
                }
            }
        }
    }
    JOINT LeftUpLeg
    {
        OFFSET 10.170634 0.000000 0.000000
        CHANNELS 3 Zrotation Xrotation Yrotation
        JOINT LeftLeg
        {
            OFFSET -0.000000 -41.352962 0.000000
            CHANNELS 3 Zrotation Xrotation Yrotation
            JOINT LeftFoot
            {
                OFFSET -0.000000 -47.535004 0.000000
                CHANNELS 3 Zrotation Xrotation Yrotation
                JOINT LeftToeBase
                {
                    OFFSET -0.000000 -6.610912 15.255952
                    CHANNELS 3 Zrotation Xrotation Yrotation
                    End Site
                    {
                        OFFSET -0.000000 0.000000 4.068254
                    }
                }
            }
        }
    }
    JOINT RightUpLeg
    {
        OFFSET -10.170634 0.000000 0.000000
        CHANNELS 3 Zrotation Xrotation Yrotation
        JOINT RightLeg
        {
            OFFSET -0.000000 -41.352962 0.000000
            CHANNELS 3 Zrotation Xrotation Yrotation
            JOINT RightFoot
            {
                OFFSET -0.000000 -47.535004 0.000000
                CHANNELS 3 Zrotation Xrotation Yrotation
                JOINT RightToeBase
                {
                    OFFSET -0.000000 -6.610912 15.255952
                    CHANNELS 3 Zrotation Xrotation Yrotation
                    End Site
                    {
                        OFFSET -0.000000 0.000000 4.068254
                    }
                }
            }
        }
    }
}
MOTION
Frames:    9
Frame Time:    0.008333
57.629223    93.987228    38.049507    0.962317    -1.214685    89.849968    -0.291656    -3.756051    -1.953973    2.636273    -2.477360    -1.887393    -6.023608    33.227394    -0.310270    4.441364    -2.030764    -0.630519    14.962573    0.943801    -1.542841    -21.724390    -3.984969    2.896444    4.700429    -8.944301    1.996070    -6.272244    -9.136970    2.065151    -18.972370    1.735824    -6.955247    15.347007    -3.233135    6.611859    -2.120450    -2.631139    -1.861966    -12.523562    -2.736393    0.645997    0.646352    12.515620    1.748695    0.348034    -7.996349    3.410727    2.211167    -3.709309    6.048069    0.000000    0.000000    0.000000    4.453804    9.638991    6.507880    -3.391170    -2.790801    0.013957    -3.371574    -5.525551    -17.992483    0.000000    0.000000    0.000000    
57.625778    93.987534    38.052505    0.958379    -1.218351    89.849663    -0.281603    -3.765307    -1.944377    2.602029    -2.467437    -1.879116    -5.947723    33.229492    -0.338787    4.392889    -2.014137    -0.655933    15.003628    0.951186    -1.553860    -21.735527    -4.036212    2.866647    4.727593    -8.881864    2.014091    -6.385902    -9.076313    2.038095    -18.945103    1.735887    -6.976640    15.319259    -3.247097    6.619864    -2.078395    -2.734063    -1.837210    -12.729648    -2.820505    0.477049    0.650190    12.506370    1.747573    0.357050    -7.995190    3.539851    2.199688    -3.715384    5.901662    0.000000    0.000000    0.000000    4.458478    9.636823    6.524399    -3.392895    -2.790658    0.016287    -3.342383    -5.527153    -18.007971    0.000000    0.000000    0.000000    
57.622868    93.986839    38.054718    0.964577    -1.223599    89.845253    -0.283178    -3.759945    -1.939249    2.617727    -2.460881    -1.873746    -6.005420    33.320316    -0.371206    4.460582    -2.149926    -0.689208    14.989859    0.930923    -1.573330    -21.724108    -4.052595    2.882943    4.702632    -8.893747    2.021173    -6.256858    -9.085773    2.038087    -18.985491    1.710056    -6.977870    15.321356    -3.231275    6.605475    -2.067924    -2.776797    -1.802859    -12.989355    -2.869183    0.526486    0.657142    12.510325    1.763648    0.351492    -8.000606    3.592355    2.178494    -3.714547    5.837030    0.000000    0.000000    0.000000    4.463376    9.640681    6.550974    -3.387548    -2.789784    0.003656    -3.372027    -5.517291    -18.026281    0.000000    0.000000    0.000000    
57.621956    93.981773    38.061581    0.978181    -1.249461    89.858688    -0.246972    -3.744206    -1.946531    2.587989    -2.468996    -1.882687    -5.940061    33.219051    -0.341594    4.367222    -1.944738    -0.663616    15.001622    0.937215    -1.565883    -21.721115    -4.019839    2.866139    4.708755    -8.893631    2.034955    -6.218750    -9.085615    2.037723    -18.960981    1.725565    -6.977547    15.287288    -3.271002    6.619906    -2.057259    -2.793751    -1.798809    -12.953532    -2.878328    0.461582    0.697803    12.522661    1.758207    0.339874    -7.999770    3.584805    2.207832    -3.752170    5.829103    0.000000    0.000000    0.000000    4.501405    9.656528    6.533216    -3.402647    -2.795751    0.021822    -3.374404    -5.511482    -18.029516    0.000000    0.000000    0.000000    
57.616222    93.988647    38.057518    0.969254    -1.222625    89.851273    -0.262158    -3.744771    -1.932121    2.558064    -2.488565    -1.868016    -5.904133    33.242771    -0.354306    4.350081    -1.941414    -0.675024    15.017716    0.926666    -1.588501    -21.711218    -4.019589    2.858858    4.728336    -8.828773    2.044852    -6.338362    -9.023464    2.034118    -18.950127    1.740186    -6.985464    15.255590    -3.281486    6.616686    -2.032721    -2.826881    -1.801074    -12.971522    -2.911101    0.460617    0.658736    12.506907    1.758669    0.355088    -7.990254    3.561700    2.200561    -3.713461    5.859528    0.000000    0.000000    0.000000    4.472311    9.630945    6.506771    -3.396039    -2.771714    0.030720    -3.371832    -5.521481    -18.014008    0.000000    0.000000    0.000000    
57.613434    93.988693    38.058395    0.972981    -1.220633    89.851242    -0.257280    -3.733043    -1.928854    2.547552    -2.510821    -1.864612    -5.909661    33.261047    -0.356188    4.346872    -1.918722    -0.680490    15.006265    0.938143    -1.607140    -21.682177    -4.049012    2.860784    4.692606    -8.844921    2.052826    -6.204645    -9.038274    2.059178    -18.964128    1.737840    -6.982715    15.255879    -3.307354    6.600310    -2.065716    -2.839476    -1.737727    -12.961887    -2.914582    0.386022    0.658287    12.510777    1.754457    0.351261    -7.997501    3.606682    2.172832    -3.707294    5.829577    0.000000    0.000000    0.000000    4.467606    9.640845    6.530517    -3.396471    -2.788600    0.032421    -3.372072    -5.507676    -18.028124    0.000000    0.000000    0.000000    
57.610641    93.988213    38.061275    0.979316    -1.223995    89.852859    -0.237275    -3.737378    -1.923514    2.503271    -2.489535    -1.861398    -5.836159    33.267673    -0.404186    4.271846    -1.921548    -0.730193    15.046632    0.918227    -1.618644    -21.689671    -4.034823    2.863464    4.687459    -8.848395    2.054638    -6.177393    -9.042127    2.075653    -18.958426    1.722853    -6.994830    15.247917    -3.298340    6.601761    -2.069446    -2.844524    -1.738347    -12.982860    -2.924893    0.431101    0.662925    12.511111    1.771923    0.349118    -7.988835    3.566839    2.195529    -3.712813    5.854981    0.000000    0.000000    0.000000    4.474225    9.640619    6.532814    -3.395633    -2.777003    0.030915    -3.377438    -5.519011    -18.038836    0.000000    0.000000    0.000000    
57.628380    93.998245    38.060043    1.022681    -1.210963    89.836197    -0.245172    -3.733076    -1.908781    2.487100    -2.449220    -1.847647    -5.806255    33.282017    -0.414051    4.244698    -1.935094    -0.740102    15.060583    0.922270    -1.621622    -21.690317    -4.045372    2.843089    4.692523    -8.846669    2.057688    -6.204849    -9.041611    2.085033    -18.969543    1.715603    -6.979939    15.232532    -3.285124    6.564672    -2.065347    -2.843251    -1.720588    -12.988028    -2.926885    0.462959    0.639538    12.585508    1.773256    0.356814    -8.033354    3.617088    2.176875    -3.637865    5.825882    0.000000    0.000000    0.000000    4.459838    9.704436    6.552533    -3.401384    -2.800759    -0.002315    -3.352932    -5.480454    -18.008352    0.000000    0.000000    0.000000    
57.624817    93.998604    38.061993    1.023915    -1.207616    89.838074    -0.245712    -3.731005    -1.905907    2.480070    -2.457477    -1.844700    -5.818466    33.346611    -0.376030    4.282556    -2.047479    -0.696456    15.047460    0.916958    -1.642914    -21.655624    -4.075953    2.849680    4.679974    -8.828017    2.068003    -6.225137    -9.023488    2.084295    -18.976061    1.736768    -6.974328    15.208938    -3.305019    6.561142    -2.059436    -2.807999    -1.748757    -12.818985    -2.902133    0.559121    0.637030    12.582621    1.785277    0.360150    -8.027122    3.632219    2.149973    -3.641516    5.782067    0.000000    0.000000    0.000000    4.458435    9.700569    6.551849    -3.408482    -2.795791    0.018385    -3.354285    -5.480467    -18.014748    0.000000    0.000000    0.000000    
